<svg width="20" height="20" viewBox="0 0 25 25" fill="none" xmlns="http://www.w3.org/2000/svg">
<g id="Frame 47122 1">
<path id="Vector" d="M12.0739 17V9.36364H13.2472V17H12.0739ZM12.6705 8.09091C12.4418 8.09091 12.2446 8.01302 12.0788 7.85724C11.9164 7.70147 11.8352 7.5142 11.8352 7.29545C11.8352 7.0767 11.9164 6.88944 12.0788 6.73366C12.2446 6.57789 12.4418 6.5 12.6705 6.5C12.8991 6.5 13.0947 6.57789 13.2571 6.73366C13.4228 6.88944 13.5057 7.0767 13.5057 7.29545C13.5057 7.5142 13.4228 7.70147 13.2571 7.85724C13.0947 8.01302 12.8991 8.09091 12.6705 8.09091Z" fill="#191A1C"/>
<path id="Vector_2" d="M13 22.5C18.799 22.5 23.5 17.799 23.5 12C23.5 6.20101 18.799 1.5 13 1.5C7.20101 1.5 2.5 6.20101 2.5 12C2.5 17.799 7.20101 22.5 13 22.5Z" stroke="#191A1C"/>
</g>
</svg>
