<svg width="16" height="16" viewBox="0 0 16 16" fill="none" xmlns="http://www.w3.org/2000/svg">
<g id="clock">
<path id="Vector" fill-rule="evenodd" clip-rule="evenodd" d="M7.99961 14.3996C9.69699 14.3996 11.3249 13.7253 12.5251 12.5251C13.7253 11.3249 14.3996 9.69699 14.3996 7.99961C14.3996 6.30222 13.7253 4.67436 12.5251 3.47413C11.3249 2.27389 9.69699 1.59961 7.99961 1.59961C6.30222 1.59961 4.67436 2.27389 3.47413 3.47413C2.27389 4.67436 1.59961 6.30222 1.59961 7.99961C1.59961 9.69699 2.27389 11.3249 3.47413 12.5251C4.67436 13.7253 6.30222 14.3996 7.99961 14.3996ZM8.79961 4.79961C8.79961 4.58744 8.71532 4.38395 8.56529 4.23392C8.41527 4.08389 8.21178 3.99961 7.99961 3.99961C7.78744 3.99961 7.58395 4.08389 7.43392 4.23392C7.28389 4.38395 7.19961 4.58744 7.19961 4.79961V7.99961C7.19965 8.21176 7.28397 8.41521 7.43401 8.56521L9.69641 10.8284C9.77074 10.9027 9.85898 10.9617 9.95609 11.0019C10.0532 11.0421 10.1573 11.0629 10.2624 11.0629C10.3675 11.0629 10.4716 11.0421 10.5687 11.0019C10.6658 10.9617 10.7541 10.9027 10.8284 10.8284C10.9027 10.7541 10.9617 10.6658 11.0019 10.5687C11.0421 10.4716 11.0629 10.3675 11.0629 10.2624C11.0629 10.1573 11.0421 10.0532 11.0019 9.95609C10.9617 9.85898 10.9027 9.77074 10.8284 9.69641L8.79961 7.66841V4.79961Z" fill="#723B13"/>
</g>
</svg>
