<svg width="16" height="16" viewBox="0 0 16 16" fill="none" xmlns="http://www.w3.org/2000/svg">
<g id="complaint-round-svgrepo-com 1">
<path id="Vector" d="M14.6679 8.07027C14.6679 9.38887 14.2769 10.6779 13.5443 11.7742C12.8117 12.8706 11.7705 13.7251 10.5523 14.2297C9.33404 14.7343 7.99354 14.8664 6.70028 14.6091C5.40702 14.3519 4.21908 13.7169 3.28669 12.7845C2.3543 11.8521 1.71934 10.6642 1.46209 9.37092C1.20485 8.07766 1.33687 6.73716 1.84148 5.51894C2.34608 4.30071 3.2006 3.25948 4.29698 2.5269C5.39335 1.79433 6.68234 1.40332 8.00093 1.40332C8.87645 1.40332 9.74339 1.57577 10.5523 1.91081C11.3611 2.24586 12.0961 2.73694 12.7152 3.35602C13.3343 3.97511 13.8253 4.71007 14.1604 5.51894C14.4954 6.32781 14.6679 7.19475 14.6679 8.07027ZM11.942 5.73595C11.9415 5.55935 11.8712 5.39009 11.7465 5.26514C11.6217 5.14018 11.4525 5.06967 11.2759 5.069H4.7622C4.5856 5.06967 4.41643 5.14018 4.29163 5.26514C4.16683 5.39009 4.09654 5.55935 4.09609 5.73595V10.104C4.09676 10.2804 4.16715 10.4494 4.29193 10.5742C4.4167 10.699 4.58574 10.7694 4.7622 10.7701H7.22957L7.86451 11.7898C7.87628 11.8175 7.89592 11.8411 7.921 11.8577C7.94608 11.8743 7.97549 11.8832 8.00557 11.8832C8.03564 11.8832 8.06505 11.8743 8.09013 11.8577C8.11521 11.8411 8.13486 11.8175 8.14662 11.7898L8.78241 10.7709H11.275C11.4516 10.7702 11.6208 10.6997 11.7456 10.5748C11.8704 10.4498 11.9407 10.2806 11.9411 10.104L11.942 5.73595ZM8.44304 9.34774C8.44304 9.43152 8.4182 9.51341 8.37165 9.58307C8.32511 9.65273 8.25896 9.70702 8.18156 9.73908C8.10416 9.77114 8.01899 9.77953 7.93682 9.76318C7.85466 9.74684 7.77918 9.7065 7.71995 9.64726C7.66071 9.58802 7.62036 9.51254 7.60402 9.43038C7.58768 9.34821 7.59607 9.26304 7.62812 9.18564C7.66018 9.10825 7.71448 9.04209 7.78413 8.99555C7.85379 8.949 7.93569 8.92416 8.01946 8.92416C8.1318 8.92416 8.23954 8.96879 8.31898 9.04823C8.39841 9.12766 8.44304 9.2354 8.44304 9.34774ZM7.68515 8.27153V6.32879C7.68515 6.24024 7.72032 6.15531 7.78294 6.09269C7.84556 6.03008 7.93049 5.9949 8.01904 5.9949C8.10759 5.9949 8.19252 6.03008 8.25514 6.09269C8.31776 6.15531 8.35294 6.24024 8.35294 6.32879V8.27153C8.35294 8.35997 8.3178 8.44479 8.25526 8.50733C8.19272 8.56987 8.1079 8.605 8.01946 8.605C7.93102 8.605 7.8462 8.56987 7.78366 8.50733C7.72112 8.44479 7.68599 8.35997 7.68599 8.27153H7.68515Z" fill="#723B13"/>
</g>
</svg>
