<svg width="14" height="16" viewBox="0 0 14 16" fill="none" xmlns="http://www.w3.org/2000/svg">
<path id="Vector" d="M11.5296 2.55556V1.77778C11.5296 1.34822 11.1929 1 10.7775 1H4.69605C4.49657 1 4.30527 1.08194 4.16422 1.22781L1.22029 4.27219C1.07924 4.41806 1 4.61589 1 4.82217V14.2222C1 14.6518 1.33673 15 1.75211 15H10.7775C11.1929 15 11.5296 14.6518 11.5296 14.2222V10.3333M4.76057 1V4.11111C4.76057 4.54067 4.42384 4.88889 4.00845 4.88889H1M9.56131 5.48932L11.6259 7.6251M12.5397 4.5871C12.6856 4.73785 12.8014 4.91687 12.8804 5.11391C12.9593 5.31096 13 5.52218 13 5.73548C13 5.94879 12.9593 6.16001 12.8804 6.35705C12.8014 6.5541 12.6856 6.73312 12.5397 6.88387L7.53812 12.053L4.76057 12.6278L5.31638 9.75621L10.3149 4.5871C10.4608 4.4356 10.6341 4.31539 10.825 4.23337C11.0159 4.15134 11.2206 4.10912 11.4273 4.10912C11.634 4.10912 11.8387 4.15134 12.0296 4.23337C12.2205 4.31539 12.3938 4.4356 12.5397 4.5871Z" stroke="white" stroke-width="1.4" stroke-linecap="round" stroke-linejoin="round"/>
</svg>
