<svg width="24" height="24" viewBox="0 0 24 24" fill="none" xmlns="http://www.w3.org/2000/svg">
<g id="duplicate">
<path id="Vector" d="M8.40039 10.8004C8.40039 10.1639 8.65325 9.55342 9.10333 9.10333C9.55342 8.65325 10.1639 8.40039 10.8004 8.40039H18.0004C18.6369 8.40039 19.2474 8.65325 19.6974 9.10333C20.1475 9.55342 20.4004 10.1639 20.4004 10.8004V18.0004C20.4004 18.6369 20.1475 19.2474 19.6974 19.6974C19.2474 20.1475 18.6369 20.4004 18.0004 20.4004H10.8004C10.1639 20.4004 9.55342 20.1475 9.10333 19.6974C8.65325 19.2474 8.40039 18.6369 8.40039 18.0004V10.8004Z" fill="#6B7280"/>
<path id="Vector_2" d="M5.99961 3.59961C5.36309 3.59961 4.75264 3.85247 4.30255 4.30255C3.85247 4.75264 3.59961 5.36309 3.59961 5.99961V13.1996C3.59961 13.8361 3.85247 14.4466 4.30255 14.8967C4.75264 15.3468 5.36309 15.5996 5.99961 15.5996V5.99961H15.5996C15.5996 5.36309 15.3468 4.75264 14.8967 4.30255C14.4466 3.85247 13.8361 3.59961 13.1996 3.59961H5.99961Z" fill="#6B7280"/>
</g>
</svg>
