<svg width="16" height="16" viewBox="0 0 16 16" fill="none" xmlns="http://www.w3.org/2000/svg">
<g id="file-check">
<g id="Subtract">
<path d="M5.99935 4.66634V1.48046C5.87741 1.54312 5.76476 1.62478 5.66602 1.72353L3.05654 4.33301C2.95779 4.43176 2.87613 4.5444 2.81346 4.66634H5.99935Z" fill="#03543F"/>
<path fill-rule="evenodd" clip-rule="evenodd" d="M7.33268 4.66634V1.33301H11.9993C12.7357 1.33301 13.3327 1.92996 13.3327 2.66634V13.333C13.3327 14.0694 12.7357 14.6663 11.9993 14.6663H3.99935C3.26297 14.6663 2.66602 14.0694 2.66602 13.333V5.99967H5.99935C6.73573 5.99967 7.33268 5.40272 7.33268 4.66634ZM10.4708 8.47108C10.7311 8.21073 10.7311 7.78862 10.4708 7.52827C10.2104 7.26792 9.78829 7.26792 9.52794 7.52827L7.33268 9.72353L6.47075 8.8616C6.2104 8.60125 5.78829 8.60125 5.52794 8.8616C5.26759 9.12195 5.26759 9.54406 5.52794 9.80441L6.86128 11.1377C7.12163 11.3981 7.54374 11.3981 7.80409 11.1377L10.4708 8.47108Z" fill="#03543F"/>
</g>
</g>
</svg>
