<svg width="16" height="16" viewBox="0 0 16 16" fill="none" xmlns="http://www.w3.org/2000/svg">
<g id="file-circle-plus">
<g id="Vector">
<path d="M11.3334 7.33301C10.6741 7.33301 10.0297 7.5285 9.4815 7.89478C8.93334 8.26105 8.50611 8.78164 8.25382 9.39073C8.00153 9.99982 7.93552 10.67 8.06414 11.3166C8.19275 11.9632 8.51022 12.5572 8.97639 13.0234C9.44255 13.4895 10.0365 13.807 10.6831 13.9356C11.3297 14.0642 11.9999 13.9982 12.609 13.7459C13.2181 13.4936 13.7386 13.0664 14.1049 12.5182C14.4712 11.9701 14.6667 11.3256 14.6667 10.6663C14.6667 9.78229 14.3155 8.93444 13.6904 8.30932C13.0653 7.6842 12.2174 7.33301 11.3334 7.33301ZM12.6667 11.333H12V11.9997C12 12.1765 11.9298 12.3461 11.8048 12.4711C11.6798 12.5961 11.5102 12.6663 11.3334 12.6663C11.1566 12.6663 10.987 12.5961 10.862 12.4711C10.737 12.3461 10.6667 12.1765 10.6667 11.9997V11.333H10.0001C9.82325 11.333 9.65369 11.2628 9.52866 11.1377C9.40364 11.0127 9.3334 10.8432 9.3334 10.6663C9.3334 10.4895 9.40364 10.32 9.52866 10.1949C9.65369 10.0699 9.82325 9.99967 10.0001 9.99967H10.6667V9.33301C10.6667 9.1562 10.737 8.98663 10.862 8.8616C10.987 8.73658 11.1566 8.66634 11.3334 8.66634C11.5102 8.66634 11.6798 8.73658 11.8048 8.8616C11.9298 8.98663 12 9.1562 12 9.33301V9.99967H12.6667C12.8435 9.99967 13.0131 10.0699 13.1381 10.1949C13.2631 10.32 13.3334 10.4895 13.3334 10.6663C13.3334 10.8432 13.2631 11.0127 13.1381 11.1377C13.0131 11.2628 12.8435 11.333 12.6667 11.333Z" fill="#111928"/>
<path d="M5.33346 4.66634V1.41967C5.00815 1.50966 4.71137 1.68158 4.47147 1.91901L2.58616 3.80434C2.34874 4.04424 2.17682 4.34103 2.08683 4.66634H5.33346Z" fill="#111928"/>
<path d="M11.378 1.33301H6.66677V4.66634C6.66677 5.01996 6.5263 5.3591 6.27625 5.60915C6.02621 5.8592 5.68707 5.99967 5.33346 5.99967H2.00017V13.333C1.99464 13.6806 2.12721 14.0162 2.36879 14.2661C2.61038 14.5161 2.94125 14.66 3.28882 14.6663H8.94208C7.96795 14.0829 7.24027 13.164 6.89564 12.0821C6.55102 11.0002 6.61315 9.82967 7.07038 8.79032C7.52761 7.75097 8.34848 6.91425 9.3789 6.43725C10.4093 5.96025 11.5784 5.87577 12.6667 6.19967V2.66634C12.6722 2.31876 12.5397 1.98317 12.2981 1.73321C12.0565 1.48324 11.7256 1.33932 11.378 1.33301Z" fill="#111928"/>
</g>
</g>
</svg>
