<svg width="16" height="16" viewBox="0 0 16 16" fill="none" xmlns="http://www.w3.org/2000/svg">
<g id="History">
<path id="Vector" d="M10.9324 2.19967C8.33242 0.733008 5.13242 1.19967 3.06576 3.19967V1.99967C3.06576 1.59967 2.79909 1.33301 2.39909 1.33301C1.99909 1.33301 1.73242 1.59967 1.73242 1.99967V4.99967C1.73242 5.39967 1.99909 5.66634 2.39909 5.66634H5.39909C5.79909 5.66634 6.06576 5.39967 6.06576 4.99967C6.06576 4.59967 5.79909 4.33301 5.39909 4.33301H3.79909C4.73242 3.26634 6.13242 2.66634 7.66576 2.66634C10.5991 2.66634 12.9991 5.06634 12.9991 7.99967C12.9991 10.933 10.5991 13.333 7.66576 13.333C7.26576 13.333 6.99909 13.5997 6.99909 13.9997C6.99909 14.3997 7.26576 14.6663 7.66576 14.6663C10.0658 14.6663 12.2658 13.3997 13.4658 11.333C15.2658 8.13301 14.1324 4.06634 10.9324 2.19967ZM7.59909 5.33301C7.19909 5.33301 6.93242 5.59967 6.93242 5.99967V7.99967C6.93242 8.39967 7.19909 8.66634 7.59909 8.66634H8.93242C9.33242 8.66634 9.59909 8.39967 9.59909 7.99967C9.59909 7.59967 9.33242 7.33301 8.93242 7.33301H8.26575V5.99967C8.26575 5.59967 7.99909 5.33301 7.59909 5.33301Z" fill="#5521B5"/>
</g>
</svg>
