<svg width="18" height="18" viewBox="0 0 18 18" fill="none" xmlns="http://www.w3.org/2000/svg">
<g id="home" clip-path="url(#clip0_1503_5940)">
<path id="Vector" d="M7.3185 14.9153V10.7123H10.6809V14.9153C10.6809 15.3776 11.0591 15.7559 11.5214 15.7559H14.0432C14.5055 15.7559 14.8838 15.3776 14.8838 14.9153V9.03115H16.3128C16.6995 9.03115 16.8844 8.55202 16.5902 8.29984L9.56287 1.97021C9.24344 1.68441 8.7559 1.68441 8.43648 1.97021L1.40916 8.29984C1.12336 8.55202 1.29988 9.03115 1.68655 9.03115H3.11556V14.9153C3.11556 15.3776 3.49382 15.7559 3.95614 15.7559H6.47791C6.94023 15.7559 7.3185 15.3776 7.3185 14.9153Z" fill="#4C6AF7"/>
</g>
<defs>
<clipPath id="clip0_1503_5940">
<rect width="18" height="18" fill="white"/>
</clipPath>
</defs>
</svg>
