<svg width="17" height="17" viewBox="0 0 17 17" fill="none" xmlns="http://www.w3.org/2000/svg">
<rect x="0.5" y="0.5" width="16" height="16" rx="8" stroke="#828282"/>
<path d="M7.73834 12V6.59091H9.01314V12H7.73834ZM8.37926 5.82321C8.17736 5.82321 8.00363 5.7563 7.85808 5.62248C7.71252 5.48632 7.63974 5.32315 7.63974 5.13299C7.63974 4.94048 7.71252 4.77731 7.85808 4.6435C8.00363 4.50733 8.17736 4.43925 8.37926 4.43925C8.58351 4.43925 8.75724 4.50733 8.90045 4.6435C9.04601 4.77731 9.11879 4.94048 9.11879 5.13299C9.11879 5.32315 9.04601 5.48632 8.90045 5.62248C8.75724 5.7563 8.58351 5.82321 8.37926 5.82321Z" fill="#828282"/>
</svg>
