<svg width="16" height="16" viewBox="0 0 16 16" fill="none" xmlns="http://www.w3.org/2000/svg">
<g id="Lab">
<path id="Vector" fill-rule="evenodd" clip-rule="evenodd" d="M13.1462 11.9998C11.5102 7.91421 9.60061 6.8374 9.60061 4.7998V2.3998H10.0006C10.1067 2.3998 10.2084 2.35766 10.2835 2.28265C10.3585 2.20763 10.4006 2.10589 10.4006 1.9998V1.1998C10.4006 1.09372 10.3585 0.991977 10.2835 0.916962C10.2084 0.841947 10.1067 0.799805 10.0006 0.799805H6.00061C5.89452 0.799805 5.79278 0.841947 5.71777 0.916962C5.64275 0.991977 5.60061 1.09372 5.60061 1.1998V1.9998C5.60061 2.10589 5.64275 2.20763 5.71777 2.28265C5.79278 2.35766 5.89452 2.3998 6.00061 2.3998H6.40061V4.7998C6.40061 6.8374 4.49101 7.91421 2.85501 11.9998C2.33421 13.2998 0.996611 15.1998 8.00061 15.1998C15.0046 15.1998 13.667 13.2998 13.1462 11.9998ZM11.8526 13.4006C11.291 13.5686 10.1734 13.7598 8.00061 13.7598C5.82781 13.7598 4.71021 13.5686 4.14861 13.4006C3.94941 13.3414 3.87181 13.1102 3.94221 12.8982C4.11821 12.3622 4.45021 11.4358 5.07101 10.4014C6.58781 7.8742 8.16141 10.799 9.47101 10.799C10.7806 10.799 10.4214 9.5502 10.9302 10.4014C11.3984 11.189 11.777 12.0264 12.059 12.8982C12.1294 13.1102 12.0518 13.3406 11.8526 13.4006Z" fill="#42389D"/>
</g>
</svg>
