<svg width="25" height="24" viewBox="0 0 25 24" fill="none" xmlns="http://www.w3.org/2000/svg">
<g id="message-caption">
<path id="Subtract" fill-rule="evenodd" clip-rule="evenodd" d="M3.50586 6C3.50586 4.89543 4.40129 4 5.50586 4H19.5059C20.6104 4 21.5059 4.89543 21.5059 6V15C21.5059 16.1046 20.6104 17 19.5059 17L12.8896 17L10.0093 19.5923C9.04402 20.461 7.50586 19.776 7.50586 18.4773V17H5.50586C4.40129 17 3.50586 16.1046 3.50586 15V6ZM7.50586 8C6.95357 8 6.50586 8.44772 6.50586 9C6.50586 9.55228 6.95357 10 7.50586 10H12.5059C13.0581 10 13.5059 9.55228 13.5059 9C13.5059 8.44772 13.0581 8 12.5059 8H7.50586ZM15.5059 8C14.9536 8 14.5059 8.44772 14.5059 9C14.5059 9.55228 14.9536 10 15.5059 10H17.5059C18.0581 10 18.5059 9.55228 18.5059 9C18.5059 8.44772 18.0581 8 17.5059 8H15.5059ZM7.50586 11C6.95357 11 6.50586 11.4477 6.50586 12C6.50586 12.5523 6.95357 13 7.50586 13H9.50586C10.0581 13 10.5059 12.5523 10.5059 12C10.5059 11.4477 10.0581 11 9.50586 11H7.50586ZM12.5059 11C11.9536 11 11.5059 11.4477 11.5059 12C11.5059 12.5523 11.9536 13 12.5059 13H17.5059C18.0581 13 18.5059 12.5523 18.5059 12C18.5059 11.4477 18.0581 11 17.5059 11H12.5059Z" fill="#1C64F2"/>
</g>
</svg>
