<svg width="20" height="20" viewBox="0 0 20 20" fill="none" xmlns="http://www.w3.org/2000/svg">
<path id="Path 3587" d="M2.4442 19.3C2.21504 19.2999 1.98815 19.2546 1.77649 19.1668C1.56483 19.079 1.37253 18.9503 1.21059 18.7882C1.04864 18.6261 0.920216 18.4336 0.832643 18.2219C0.74507 18.0101 0.700064 17.7832 0.700196 17.554V2.44301C0.700461 1.98065 0.88432 1.53731 1.21136 1.21046C1.53839 0.883617 1.98183 0.700012 2.4442 0.700012H17.5542C18.0167 0.700012 18.4604 0.883553 18.7877 1.21034C19.1151 1.53713 19.2994 1.98046 19.3002 2.44301V17.554C19.2994 18.0167 19.1151 18.4601 18.7878 18.787C18.4605 19.114 18.0168 19.2977 17.5542 19.298L2.4442 19.3ZM2.4442 17.556H10.8712V7.09301H2.4442V17.556ZM17.5542 5.35601V2.44301H2.4442V5.34901L17.5542 5.35601Z" fill="#1F2A37"/>
</svg>
