<svg width="18" height="18" viewBox="0 0 18 18" fill="none" xmlns="http://www.w3.org/2000/svg">
<path fill-rule="evenodd" clip-rule="evenodd" d="M5.5 2C3.567 2 2 3.567 2 5.5C2 7.433 3.567 9 5.5 9C7.433 9 9 7.433 9 5.5C9 3.567 7.433 2 5.5 2ZM3.75 9.875C1.817 9.875 0.25 11.442 0.25 13.375V14.25C0.25 15.2165 1.0335 16 2 16H9C9.9665 16 10.75 15.2165 10.75 14.25V13.375C10.75 11.442 9.183 9.875 7.25 9.875H3.75Z" fill="#4C6AF7"/>
<path fill-rule="evenodd" clip-rule="evenodd" d="M10.0945 8.04234C10.5122 7.2891 10.75 6.42232 10.75 5.5C10.75 4.57768 10.5122 3.7109 10.0945 2.95766C10.7216 2.36405 11.5683 2 12.5 2C14.433 2 16 3.567 16 5.5C16 7.433 14.433 9 12.5 9C11.5683 9 10.7216 8.63595 10.0945 8.04234ZM12.0318 16C12.3296 15.4852 12.5 14.8875 12.5 14.25V13.375C12.5 12.0304 11.9945 10.8038 11.1632 9.875H14.25C16.183 9.875 17.75 11.442 17.75 13.375V14.25C17.75 15.2165 16.9665 16 16 16H12.0318Z" fill="#4C6AF7"/>
</svg>
