<svg width="16" height="16" viewBox="0 0 16 16" fill="none" xmlns="http://www.w3.org/2000/svg">
<g id="pill">
<g id="Vector">
<path d="M8.74316 2.07127C10.1632 0.651182 12.4657 0.651183 13.8857 2.07127C15.3058 3.49136 15.3058 5.79378 13.8858 7.21386L7.71463 13.385C6.29455 14.8051 3.99213 14.8051 2.57204 13.385C1.15195 11.9649 1.15195 9.66247 2.57204 8.24239L8.74316 2.07127Z" fill="#03543F"/>
<path d="M9.00028 4.8997L10.5431 3.35692M5.6576 5.15683L10.8002 10.2994M2.57204 13.385V13.385C3.99213 14.8051 6.29455 14.8051 7.71463 13.385L13.8858 7.21386C15.3058 5.79378 15.3058 3.49136 13.8857 2.07127V2.07127C12.4657 0.651183 10.1632 0.651182 8.74316 2.07127L2.57204 8.24239C1.15195 9.66247 1.15195 11.9649 2.57204 13.385Z" stroke="#DEF7EC" stroke-linecap="round" stroke-linejoin="round"/>
</g>
</g>
</svg>
