<svg width="14" height="14" viewBox="0 0 14 14" fill="none" xmlns="http://www.w3.org/2000/svg">
<g id="Pin">
<path id="Vector" d="M9.75793 2.4913C9.64885 2.38163 9.50068 2.31978 9.346 2.31934C9.19132 2.3189 9.0428 2.37992 8.9331 2.48896C8.87523 2.54796 8.8305 2.61853 8.80185 2.69605C8.31652 3.70871 7.78218 4.2798 7.10785 4.61696C6.35127 4.9903 5.48268 5.24988 4.08268 5.24988C3.96752 5.25043 3.85507 5.28484 3.75933 5.34884C3.66359 5.41284 3.58879 5.50359 3.54427 5.6098C3.50018 5.71643 3.48868 5.83373 3.51121 5.9469C3.53374 6.06006 3.58929 6.16401 3.67085 6.24563L5.5626 8.13738L2.91602 11.6665L6.44518 9.01996L8.33635 10.9111C8.39052 10.9658 8.45522 11.0088 8.52652 11.0377C8.59768 11.0675 8.67352 11.0832 8.74935 11.0832C8.82518 11.0832 8.90102 11.0675 8.97218 11.0377C9.07886 10.994 9.1701 10.9194 9.2343 10.8237C9.29849 10.7279 9.33274 10.6152 9.33268 10.4999C9.33268 9.09988 9.59168 8.2313 9.96443 7.48638C10.301 6.81205 10.8721 6.27771 11.8853 5.79238C11.9628 5.764 12.0333 5.71923 12.0918 5.66113C12.2009 5.55143 12.2619 5.40291 12.2615 5.24823C12.261 5.09355 12.1992 4.94538 12.0895 4.8363L9.75793 2.4913Z" fill="#723B13"/>
</g>
</svg>
