<svg width="20" height="20" viewBox="0 0 20 20" fill="none" xmlns="http://www.w3.org/2000/svg">
<g id="refer-arrow 1" clip-path="url(#clip0_813_16177)">
<path id="Vector" d="M19.39 14.8067L16.9275 17.2692C16.765 17.4317 16.5517 17.5133 16.3383 17.5133C16.125 17.5133 15.9117 17.4317 15.7492 17.2692C15.4233 16.9433 15.4233 16.4167 15.7492 16.0908L17.6733 14.1667H14.5842C13.435 14.1667 12.5008 15.1008 12.5008 16.25V19.1667C12.5008 19.6275 12.1283 20 11.6675 20C11.2067 20 10.8342 19.6275 10.8342 19.1667V16.25C10.8342 14.1825 12.5167 12.5 14.5842 12.5H17.6733L15.7625 10.5892C15.4367 10.2633 15.4367 9.73667 15.7625 9.41083C16.0883 9.085 16.615 9.085 16.9408 9.41083L19.39 11.86C20.2025 12.6725 20.2025 13.995 19.39 14.8067ZM1.66667 5C1.66667 2.2425 3.90917 0 6.66667 0C9.42417 0 11.6667 2.2425 11.6667 5C11.6667 7.7575 9.42417 10 6.66667 10C3.90917 10 1.66667 7.7575 1.66667 5ZM10.1733 12.4883C10.2633 12.7383 10.2292 13.0158 10.0817 13.2358C9.48333 14.1275 9.16667 15.1692 9.16667 16.2492V19.1658C9.16667 19.6267 8.79417 19.9992 8.33333 19.9992H0.833333C0.3725 19.9992 0 19.6267 0 19.1658C0 15.03 3.36417 11.6658 7.5 11.6658C8.22167 11.6658 8.9375 11.7683 9.62583 11.9717C9.88 12.0467 10.0833 12.2383 10.1733 12.4875V12.4883Z" fill="#6B7280"/>
</g>
<defs>
<clipPath id="clip0_813_16177">
<rect width="20" height="20" fill="white"/>
</clipPath>
</defs>
</svg>
