<svg width="16" height="16" viewBox="0 0 16 16" fill="none" xmlns="http://www.w3.org/2000/svg">
<g id="rotate">
<g id="Vector">
<path d="M13.3333 7.33301C12.9647 7.33301 12.6667 7.63167 12.6667 7.99967C12.6667 10.573 10.5727 12.6663 8 12.6663C6.768 12.6663 5.602 12.173 4.74067 11.333H6.66667C7.03533 11.333 7.33333 11.0343 7.33333 10.6663C7.33333 10.2983 7.03533 9.99967 6.66667 9.99967H3.502C3.37 9.97234 3.232 9.98834 3.10067 10.0463C3.08867 10.051 3.076 10.053 3.064 10.0583C3.05533 10.063 3.046 10.0623 3.03733 10.067C3.01933 10.0777 3.00933 10.095 2.992 10.1063C2.80067 10.2243 2.66667 10.4257 2.66667 10.6663V13.9997C2.66667 14.3677 2.96467 14.6663 3.33333 14.6663C3.702 14.6663 4 14.3677 4 13.9997V12.453C5.08667 13.427 6.50333 13.9997 8 13.9997C11.3087 13.9997 14 11.3077 14 7.99967C14 7.63167 13.702 7.33301 13.3333 7.33301Z" fill="#1E429F"/>
<path d="M3.33333 7.99967C3.33333 5.42634 5.42733 3.33301 8 3.33301C9.232 3.33301 10.398 3.82634 11.2593 4.66634H9.33333C8.96467 4.66634 8.66667 4.96501 8.66667 5.33301C8.66667 5.70101 8.96467 5.99967 9.33333 5.99967H12.4967C12.6293 6.02767 12.7687 6.01101 12.9 5.95234C12.912 5.94767 12.9247 5.94567 12.9367 5.94034C12.9453 5.93567 12.9547 5.93634 12.9633 5.93167C12.9813 5.92101 12.9913 5.90367 13.0087 5.89234C13.1993 5.77501 13.3333 5.57367 13.3333 5.33301V1.99967C13.3333 1.63167 13.0353 1.33301 12.6667 1.33301C12.298 1.33301 12 1.63167 12 1.99967V3.54634C10.9133 2.57234 9.49667 1.99967 8 1.99967C4.69133 1.99967 2 4.69167 2 7.99967C2 8.36767 2.298 8.66634 2.66667 8.66634C3.03533 8.66634 3.33333 8.36767 3.33333 7.99967Z" fill="#1E429F"/>
</g>
</g>
</svg>
