<svg width="24" height="24" viewBox="0 0 24 24" fill="none" xmlns="http://www.w3.org/2000/svg">
<g id="Rx">
<path id="Vector" fill-rule="evenodd" clip-rule="evenodd" d="M2 12C2 6.47715 6.47715 2 12 2C17.5229 2 22 6.47715 22 12C22 17.5229 17.5229 22 12 22C6.47715 22 2 17.5229 2 12ZM8 7C8 6.72385 8.22385 6.5 8.5 6.5H11.5C12.8807 6.5 14 7.6193 14 9C14 10.3137 12.9868 11.3906 11.6992 11.4922L14 13.7929L16.1465 11.6465L16.8536 12.3536L14.7071 14.5L16.8535 16.6465L16.1464 17.3536L14 15.2072L11.8536 17.3536L11.1465 16.6465L13.2929 14.5L10.2928 11.5H9V15H8V7ZM11.5 10.5H9V7.5H11.5C12.3285 7.5 13 8.17155 13 9C13 9.82845 12.3285 10.5 11.5 10.5Z" fill="#5850EC"/>
</g>
</svg>
