<svg width="28" height="28" viewBox="0 0 28 28" fill="none" xmlns="http://www.w3.org/2000/svg">
<path id="Vector" d="M26.6478 19.1063L24.9647 21.882C24.2399 23.0766 22.6428 23.4865 21.3897 22.7955L18.2939 21.0973V24.5054C18.2939 25.8874 17.1268 27 15.6771 27H12.311C10.8614 27 9.69428 25.8874 9.69428 24.5054V21.0973L6.59842 22.7955C5.34533 23.4865 3.74827 23.0766 3.02344 21.882L1.35266 19.1063C0.627839 17.9234 1.05782 16.3892 2.29862 15.6982L5.39448 14L2.29862 12.3018C1.05782 11.6108 0.627839 10.0766 1.35266 8.89369L3.03573 6.11802C3.74827 4.92342 5.35762 4.51351 6.59842 5.19279L9.69428 6.89099V3.49459C9.69428 2.11261 10.8614 1 12.311 1H15.6771C17.1268 1 18.2939 2.11261 18.2939 3.49459V6.9027L21.3897 5.2045C22.6428 4.51351 24.2399 4.92342 24.9647 6.11802L26.6478 8.89369C27.3726 10.0883 26.9426 11.6108 25.6895 12.3018L22.5937 14L25.6895 15.6982C26.9426 16.3892 27.3726 17.9234 26.6478 19.1063Z" stroke="#1C64F2" stroke-width="2" stroke-miterlimit="10"/>
</svg>
