<svg width="28" height="28" viewBox="0 0 28 28" fill="none" xmlns="http://www.w3.org/2000/svg">
<g id="stethoscope--instrument-health-medical-stethoscope">
<path id="Ellipse 43" d="M27 4.09524C27 4.91615 26.6739 5.70343 26.0935 6.2839C25.513 6.86437 24.7257 7.19048 23.9048 7.19048C23.0839 7.19048 22.2966 6.86437 21.7161 6.2839C21.1357 5.70343 20.8096 4.91615 20.8096 4.09524C20.8096 3.27433 21.1357 2.48704 21.7161 1.90657C22.2966 1.3261 23.0839 1 23.9048 1C24.7257 1 25.513 1.3261 26.0935 1.90657C26.6739 2.48704 27 3.27433 27 4.09524Z" stroke="#1C64F2" stroke-width="2" stroke-linecap="round" stroke-linejoin="round"/>
<path id="Rectangle 1095" d="M4.09524 1C3.78262 1 3.48733 1.01733 3.21248 1.04643C1.81343 1.19562 1 2.50676 1 3.91262V8.42857C1 8.73933 1.00124 9.03833 1.00371 9.32619C1.03776 13.03 3.82719 15.82 7.53033 15.8534C8.12915 15.859 8.728 15.859 9.32681 15.8534C13.03 15.8194 15.8194 13.03 15.8534 9.32681C15.8559 9.03833 15.8571 8.73871 15.8571 8.42857V3.91324C15.8571 2.50614 15.0431 1.19562 13.644 1.04705C13.351 1.01581 13.0566 1.00011 12.7619 1" stroke="#1C64F2" stroke-width="2" stroke-linecap="round" stroke-linejoin="round"/>
<path id="Vector 2115" d="M8.42847 15.8571V19.2619C8.42847 23.5358 11.8927 27 16.1666 27C20.4405 27 23.9047 23.5358 23.9047 19.2619V7.19043" stroke="#1C64F2" stroke-width="2" stroke-linecap="round" stroke-linejoin="round"/>
</g>
</svg>
